<svg xmlns="http://www.w3.org/2000/svg" viewBox="0 0 140 160"><defs><filter id="g"><feGaussianBlur stdDeviation="3" result="b"/><feMerge><feMergeNode in="b"/><feMergeNode in="SourceGraphic"/></feMerge></filter><linearGradient id="r" x1="0" x2="0" y1="0" y2="1"><stop stop-color="#ffeff8"/><stop offset=".45" stop-color="#ff184f"/><stop offset="1" stop-color="#3b0515"/></linearGradient><linearGradient id="d" x1="0" x2="0" y1="0" y2="1"><stop stop-color="#4a4c59"/><stop offset="1" stop-color="#080911"/></linearGradient></defs><g filter="url(#g)"><path d="M70 8 96 78l38 58-45-18-19 35-19-35-45 18 38-58Z" fill="#05050a"/><path d="M70 16 88 75l20 45-26-11-12 27-12-27-26 11 20-45Z" fill="url(#d)" stroke="#0e0e17" stroke-width="4"/><path d="M70 34c14 21 17 49 0 78-17-29-14-57 0-78Z" fill="url(#r)" stroke="#ff7aa4" stroke-width="2"/><path d="M35 93h13v31H35Zm57 0h13v31H92Z" fill="#ff2b84"/><path d="M26 94 6 132l43-22Zm88 0 20 38-43-22Z" fill="#171923" stroke="#ff3d9a" stroke-width="3"/><path d="M56 136h28l-14 20Z" fill="#ff174d"/></g></svg>