<svg xmlns="http://www.w3.org/2000/svg" viewBox="0 0 120 160"><defs><filter id="g"><feGaussianBlur stdDeviation="3" result="b"/><feMerge><feMergeNode in="b"/><feMergeNode in="SourceGraphic"/></feMerge></filter><linearGradient id="m" x1="0" x2="0" y1="0" y2="1"><stop stop-color="#f8fbff"/><stop offset=".5" stop-color="#8c95a3"/><stop offset="1" stop-color="#151a24"/></linearGradient><linearGradient id="c" x1="0" x2="0" y1="0" y2="1"><stop stop-color="#dfffff"/><stop offset=".5" stop-color="#11b8ff"/><stop offset="1" stop-color="#0046ff"/></linearGradient></defs><g filter="url(#g)"><path d="M60 6 86 72l27 50-33-12-20 44-20-44-33 12 27-50Z" fill="#06101d"/><path d="M60 12 78 74l15 43-25-10-8 27-8-27-25 10 15-43Z" fill="url(#m)" stroke="#111927" stroke-width="3"/><path d="M60 34c13 17 16 43 0 70-16-27-13-53 0-70Z" fill="url(#c)" stroke="#8cf7ff" stroke-width="2"/><path d="M37 94h12v27H37Zm34 0h12v27H71Z" fill="#0ff"/><path d="M49 132h22l-11 25Z" fill="#28dcff" opacity=".9"/><path d="M22 107 8 127l31-9Zm76 0 14 20-31-9Z" fill="#2d3542" stroke="#23d8ff" stroke-width="2"/></g></svg>